<svg width="18" height="19" viewBox="0 0 18 19" fill="none" xmlns="http://www.w3.org/2000/svg">
<path d="M9 15.5198L4.77526 18.7254C4.56593 18.8956 4.33756 18.9758 4.09017 18.966C3.84277 18.9569 3.62392 18.8862 3.43362 18.7538C3.24332 18.6214 3.09602 18.4417 2.99174 18.2148C2.88669 17.9878 2.88174 17.742 2.97689 17.4772L4.60399 12.2291L0.464884 9.30711C0.23652 9.15581 0.0937924 8.95724 0.0367014 8.71138C-0.0203897 8.46552 -0.0108744 8.23857 0.065247 8.03053C0.141368 7.8225 0.274581 7.63791 0.464884 7.47678C0.655188 7.31641 0.883552 7.23622 1.14998 7.23622H6.25963L7.91527 1.78948C8.01042 1.52471 8.1581 1.32121 8.3583 1.17899C8.55773 1.03753 8.77164 0.966797 9 0.966797C9.22836 0.966797 9.44227 1.03753 9.6417 1.17899C9.8419 1.32121 9.98958 1.52471 10.0847 1.78948L11.7404 7.23622H16.85C17.1164 7.23622 17.3448 7.31641 17.5351 7.47678C17.7254 7.63791 17.8586 7.8225 17.9348 8.03053C18.0109 8.23857 18.0204 8.46552 17.9633 8.71138C17.9062 8.95724 17.7635 9.15581 17.5351 9.30711L13.396 12.2291L15.0231 17.4772C15.1183 17.742 15.1137 17.9878 15.0094 18.2148C14.9044 18.4417 14.7567 18.6214 14.5664 18.7538C14.3761 18.8862 14.1572 18.9569 13.9098 18.966C13.6624 18.9758 13.4341 18.8956 13.2247 18.7254L9 15.5198Z" fill="black"/>
</svg>
