<svg width="34" height="33" viewBox="0 0 34 33" fill="none" xmlns="http://www.w3.org/2000/svg">
<path fill-rule="evenodd" clip-rule="evenodd" d="M23.5639 14.6154C23.5639 18.5452 20.3782 21.7309 16.4485 21.7309C12.5187 21.7309 9.33301 18.5452 9.33301 14.6154C9.33301 10.6857 12.5187 7.5 16.4485 7.5C20.3782 7.5 23.5639 10.6857 23.5639 14.6154ZM22.1738 23.2992C21.8423 22.9677 21.3274 22.9162 20.9124 23.1341C19.5784 23.8346 18.0597 24.2309 16.4485 24.2309C11.138 24.2309 6.83301 19.9259 6.83301 14.6154C6.83301 9.30498 11.138 5 16.4485 5C21.7589 5 26.0639 9.30498 26.0639 14.6154C26.0639 16.7794 25.3491 18.7763 24.1427 20.3831C23.821 20.8116 23.829 21.4189 24.2079 21.7978L28.6448 26.2347C29.0354 26.6253 29.0354 27.2584 28.6448 27.6489L28.2913 28.0025C27.9008 28.393 27.2676 28.393 26.8771 28.0025L22.1738 23.2992Z" fill="#A3A3A3"/>
</svg>
