<svg width="100" height="100" viewBox="0 0 100 100" fill="none" xmlns="http://www.w3.org/2000/svg">
<circle cx="50" cy="50" r="49" fill="#F8F8F8" stroke="#CFCFCF" stroke-width="2"/>
<path fill-rule="evenodd" clip-rule="evenodd" d="M63.8411 36.0154C63.8411 43.1636 57.6419 48.9585 49.9949 48.9585C42.3479 48.9585 36.1488 43.1636 36.1488 36.0154C36.1488 28.8671 42.3479 23.0723 49.9949 23.0723C57.6419 23.0723 63.8411 28.8671 63.8411 36.0154ZM59.1414 36.0154C59.1414 40.7373 55.0464 44.5653 49.9949 44.5653C44.9435 44.5653 40.8485 40.7373 40.8485 36.0154C40.8485 31.2934 44.9435 27.4655 49.9949 27.4655C55.0464 27.4655 59.1414 31.2934 59.1414 36.0154Z" fill="#CFCFCF"/>
<path fill-rule="evenodd" clip-rule="evenodd" d="M73.0718 71.315L73.0718 68.6842L73.0718 68.6791C72.6182 60.1569 62.4597 53.3441 49.9949 53.3441C37.5301 53.3441 27.3719 60.1569 26.9182 68.6791L26.918 68.6842V71.315C26.918 72.2855 27.7596 73.0723 28.7978 73.0723H71.1919C72.2301 73.0723 73.0718 72.2855 73.0718 71.315ZM63.5331 61.5447C66.5824 63.6482 68.1472 66.1901 68.362 68.6791H31.6278C31.8426 66.1901 33.4074 63.6482 36.4567 61.5447C39.7479 59.2743 44.519 57.7373 49.9949 57.7373C55.4707 57.7373 60.2418 59.2743 63.5331 61.5447Z" fill="#CFCFCF"/>
</svg>
