<svg width="18" height="18" viewBox="0 0 18 18" fill="none" xmlns="http://www.w3.org/2000/svg">
<rect width="18" height="18" rx="8" fill="#E0F1EA"/>
<path d="M9 14C7.60417 14 6.42187 13.5156 5.45312 12.5469C4.48437 11.5781 4 10.3958 4 9C4 7.60417 4.48437 6.42187 5.45312 5.45312C6.42187 4.48437 7.60417 4 9 4C9.71875 4 10.4062 4.14854 11.0625 4.44562C11.7188 4.74229 12.2812 5.16667 12.75 5.71875V4.625C12.75 4.44792 12.81 4.29938 12.93 4.17938C13.0496 4.05979 13.1979 4 13.375 4C13.5521 4 13.7004 4.05979 13.82 4.17938C13.94 4.29938 14 4.44792 14 4.625V7.75C14 7.92708 13.94 8.07542 13.82 8.195C13.7004 8.315 13.5521 8.375 13.375 8.375H10.25C10.0729 8.375 9.92458 8.315 9.805 8.195C9.685 8.07542 9.625 7.92708 9.625 7.75C9.625 7.57292 9.685 7.42437 9.805 7.30437C9.92458 7.18479 10.0729 7.125 10.25 7.125H12.25C11.9167 6.54167 11.461 6.08333 10.8831 5.75C10.3048 5.41667 9.67708 5.25 9 5.25C7.95833 5.25 7.07292 5.61458 6.34375 6.34375C5.61458 7.07292 5.25 7.95833 5.25 9C5.25 10.0417 5.61458 10.9271 6.34375 11.6562C7.07292 12.3854 7.95833 12.75 9 12.75C9.71875 12.75 10.3829 12.5598 10.9925 12.1794C11.6017 11.7994 12.0573 11.2917 12.3594 10.6562C12.4115 10.5417 12.4975 10.4454 12.6175 10.3675C12.7371 10.2892 12.8594 10.25 12.9844 10.25C13.224 10.25 13.4038 10.3333 13.5238 10.5C13.6433 10.6667 13.6562 10.8542 13.5625 11.0625C13.1667 11.9479 12.5573 12.6587 11.7344 13.195C10.9115 13.7317 10 14 9 14Z" fill="#009459"/>
</svg>
