<svg width="34" height="33" viewBox="0 0 34 33" fill="none" xmlns="http://www.w3.org/2000/svg">
<g clip-path="url(#clip0_3189_8574)">
<path fill-rule="evenodd" clip-rule="evenodd" d="M23.2312 5.89934L25.6375 11.1433C25.7168 11.3162 25.8439 11.4629 26.0036 11.5661L30.8495 14.6977L31.9171 15.3876C32.4769 15.7493 32.5328 16.5471 32.0289 16.9834L31.068 17.8155L25.4332 22.6945C25.1211 22.9647 24.6751 23.0154 24.3104 22.8222L18.9404 19.9768C18.5756 19.7835 18.1296 19.8342 17.8176 20.1044L17.7492 20.1636C17.3694 20.4925 17.3004 21.049 17.5205 21.5006C18.0205 22.5267 18.2651 23.6942 18.1773 24.9146C17.9118 28.6092 14.7014 31.389 11.0068 31.1234C7.31213 30.8579 4.53233 27.6475 4.7979 23.9529C5.06348 20.2582 8.27386 17.4784 11.9685 17.744C13.0052 17.8185 13.9698 18.1249 14.8154 18.6087C15.2226 18.8417 15.7394 18.8298 16.0941 18.5227L16.1709 18.4562C16.483 18.186 16.5969 17.7518 16.4578 17.3632L14.255 11.2093C14.1159 10.8206 14.2299 10.3865 14.5419 10.1163L20.1768 5.2372L21.1377 4.40518C21.6415 3.96888 22.4232 4.13832 22.7011 4.7441L23.2312 5.89934ZM24.4021 13.5078L27.7616 15.6788C28.3214 16.0405 28.3773 16.8383 27.8734 17.2746L25.0909 19.6839C24.7789 19.9541 24.3329 20.0048 23.9681 19.8116L19.4009 17.3916C19.1805 17.2748 19.0117 17.0798 18.9276 16.845L17.1857 11.9786C17.0466 11.59 17.1606 11.1558 17.4726 10.8856L20.2551 8.4763C20.759 8.04 21.5406 8.20944 21.8186 8.81522L23.4868 12.4507L23.669 12.8478C23.7483 13.0207 23.8754 13.1674 24.0351 13.2706L24.4021 13.5078ZM11.186 28.6299C13.5035 28.7965 15.5172 27.0528 15.6838 24.7353C15.8504 22.4179 14.1067 20.4042 11.7892 20.2376C9.47178 20.071 7.45805 21.8146 7.29147 24.1321C7.12489 26.4496 8.86853 28.4633 11.186 28.6299Z" fill="#A3A3A3"/>
</g>
<defs>
<clipPath id="clip0_3189_8574">
<rect width="33" height="33" fill="white" transform="translate(0.166992)"/>
</clipPath>
</defs>
</svg>
