<svg width="21" height="21" viewBox="0 0 21 21" fill="none" xmlns="http://www.w3.org/2000/svg">
<rect y="0.541016" width="21" height="19.9167" rx="9.95833" fill="#F0F0F0"/>
<path d="M7.0625 16.4577C6.68438 16.4577 6.36079 16.3281 6.09175 16.0691C5.82225 15.8095 5.6875 15.4977 5.6875 15.1336V6.52713H5V5.20305H8.4375V4.54102H12.5625V5.20305H16V6.52713H15.3125V15.1336C15.3125 15.4977 15.178 15.8095 14.9089 16.0691C14.6394 16.3281 14.3156 16.4577 13.9375 16.4577H7.0625ZM13.9375 6.52713H7.0625V15.1336H13.9375V6.52713ZM8.4375 13.8095H9.8125V7.8512H8.4375V13.8095ZM11.1875 13.8095H12.5625V7.8512H11.1875V13.8095Z" fill="#858585"/>
</svg>
