<svg width="78" height="110" viewBox="0 0 78 110" fill="none" xmlns="http://www.w3.org/2000/svg">
<path fill-rule="evenodd" clip-rule="evenodd" d="M42.3371 92.096C50.5384 81.9054 62.3263 74.6592 70.1005 64.1391C75.0584 57.4302 78 49.0674 78 40C78 17.9086 60.5391 0 39 0C17.4609 0 0 17.9086 0 40C0 50.7806 4.15824 60.5652 10.9194 67.7584C19.1538 76.519 30.1248 82.7295 37.6629 92.096V92.096C38.8637 93.5881 41.1363 93.5881 42.3371 92.096V92.096Z" fill="#009459"/>
<rect x="15" y="102" width="47" height="8" rx="4" fill="#C4E9BE"/>
<path fill-rule="evenodd" clip-rule="evenodd" d="M74.4864 23.3847L9.10833 65.6942C3.42337 58.7441 0 49.7824 0 40.0007C0 37.1697 0.286745 34.4074 0.832073 31.7427L48.1647 1.11133C59.8997 4.01001 69.5671 12.3509 74.4864 23.3847Z" fill="#C4E9BE"/>
<ellipse cx="39" cy="40.5333" rx="16" ry="16.5333" fill="white"/>
</svg>
