<svg width="30" height="30" viewBox="0 0 30 30" fill="none" xmlns="http://www.w3.org/2000/svg">
<circle cx="15" cy="15" r="14.5" fill="#F8F8F8" stroke="#858585"/>
<path d="M20.5099 21.1039H21.0549L21.008 20.5609C20.9273 19.626 20.3458 18.7424 19.3451 18.052C18.2643 17.3064 16.731 16.8214 14.9997 16.8214C13.2684 16.8214 11.7352 17.3064 10.6544 18.052C9.65366 18.7424 9.07214 19.626 8.99147 20.5609L8.94462 21.1039H9.48962H20.5099ZM18.6536 10.8048C18.6536 12.6419 17.05 14.1877 14.9997 14.1877C12.9495 14.1877 11.3459 12.6419 11.3459 10.8048C11.3459 8.96769 12.9495 7.42188 14.9997 7.42188C17.05 7.42188 18.6536 8.96769 18.6536 10.8048ZM14.9997 13.8698C16.759 13.8698 18.2437 12.5288 18.2437 10.8048C18.2437 9.08084 16.759 7.73983 14.9997 7.73983C13.2405 7.73983 11.7558 9.08084 11.7558 10.8048C11.7558 12.5288 13.2405 13.8698 14.9997 13.8698ZM19.5353 17.761C20.6884 18.5295 21.361 19.5468 21.4228 20.6178L21.4228 21.3941C21.4223 21.3952 21.4205 21.3982 21.4162 21.4022C21.4064 21.4114 21.3873 21.4219 21.3588 21.4219H8.64062C8.61215 21.4219 8.59307 21.4114 8.58328 21.4022C8.57899 21.3982 8.57721 21.3952 8.57666 21.3941V20.6192C8.63803 19.5476 9.31064 18.5298 10.4643 17.761C11.6191 16.9914 13.2168 16.5034 14.9997 16.5034C16.7827 16.5034 18.3804 16.9914 19.5353 17.761Z" fill="#858585" stroke="#858585"/>
</svg>
