<svg width="14" height="17" viewBox="0 0 14 17" fill="none" xmlns="http://www.w3.org/2000/svg">
<path fill-rule="evenodd" clip-rule="evenodd" d="M8.05272 15.9583C10.0072 14.4442 14 10.8594 14 6.84091C14 5.02659 13.2625 3.28657 11.9497 2.00366C10.637 0.720736 8.85652 0 7 0C5.14348 0 3.36301 0.720736 2.05025 2.00366C0.737498 3.28657 0 5.02659 0 6.84091C0 10.8594 3.99278 14.4442 5.94728 15.9583C6.57342 16.4434 7.42658 16.4434 8.05272 15.9583ZM10.1119 7.00076C10.1119 8.71898 8.71898 10.1119 7.00076 10.1119C5.28254 10.1119 3.88965 8.71898 3.88965 7.00076C3.88965 5.28254 5.28254 3.88965 7.00076 3.88965C8.71898 3.88965 10.1119 5.28254 10.1119 7.00076Z" fill="#AFAFAF"/>
</svg>
