<svg width="34" height="33" viewBox="0 0 34 33" fill="none" xmlns="http://www.w3.org/2000/svg">
<path fill-rule="evenodd" clip-rule="evenodd" d="M18.5 15.9C21.0957 15.9 23.2 13.7957 23.2 11.2C23.2 8.60426 21.0957 6.5 18.5 6.5C15.9042 6.5 13.8 8.60426 13.8 11.2C13.8 13.7957 15.9042 15.9 18.5 15.9ZM18.5 18.4C22.4764 18.4 25.7 15.1764 25.7 11.2C25.7 7.22355 22.4764 4 18.5 4C14.5235 4 11.3 7.22355 11.3 11.2C11.3 15.1764 14.5235 18.4 18.5 18.4ZM27.9948 29.3711C27.8841 28.0066 27.0816 26.6071 25.5065 25.4448C23.8057 24.1896 21.3367 23.3377 18.5 23.3377C15.6633 23.3377 13.1943 24.1896 11.4935 25.4448C9.91838 26.6071 9.1159 28.0066 9.00524 29.3711H27.9948ZM30.5 29.3711L30.5 30.815C30.5 31.3673 30.0523 31.815 29.5 31.815H7.5C6.94772 31.815 6.5 31.3673 6.5 30.815V29.3711C6.7339 24.6291 12.017 20.8377 18.5 20.8377C24.983 20.8377 30.2661 24.6291 30.5 29.3711Z" fill="#A3A3A3"/>
</svg>
