<svg width="103" height="103" viewBox="0 0 103 103" fill="none" xmlns="http://www.w3.org/2000/svg">
<circle cx="51.5" cy="51.5" r="51.5" fill="#EDEDED"/>
<path fill-rule="evenodd" clip-rule="evenodd" d="M50.9998 49.7C54.921 49.7 58.0998 46.5212 58.0998 42.6C58.0998 38.6788 54.921 35.5 50.9998 35.5C47.0786 35.5 43.8998 38.6788 43.8998 42.6C43.8998 46.5212 47.0786 49.7 50.9998 49.7ZM50.9998 52.2C56.3018 52.2 60.5998 47.9019 60.5998 42.6C60.5998 37.2981 56.3018 33 50.9998 33C45.6979 33 41.3998 37.2981 41.3998 42.6C41.3998 47.9019 45.6979 52.2 50.9998 52.2ZM64.4961 66.8285C64.3469 64.6957 63.1083 62.5987 60.8375 60.9229C58.4123 59.1332 54.9426 57.9507 51.0006 57.9507C47.0586 57.9507 43.5889 59.1332 41.1637 60.9229C38.8929 62.5987 37.6543 64.6957 37.5051 66.8285H35.0006C35.3125 60.5058 42.3566 55.4507 51.0006 55.4507C59.6446 55.4507 66.6887 60.5058 67.0006 66.8285H64.4961ZM67 66.8286H35V68.8286C35 69.3809 35.4477 69.8286 36 69.8286H66C66.5523 69.8286 67 69.3809 67 68.8286V66.8286Z" fill="black"/>
</svg>
