<svg width="15" height="16" viewBox="0 0 15 16" fill="none" xmlns="http://www.w3.org/2000/svg">
<path d="M1.425 7.80469C1.425 6.52219 2.4675 5.47969 3.75 5.47969H6.75V4.05469H3.75C1.68 4.05469 0 5.73469 0 7.80469C0 9.87469 1.68 11.5547 3.75 11.5547H6.75V10.1297H3.75C2.4675 10.1297 1.425 9.08719 1.425 7.80469ZM4.5 8.55469H10.5V7.05469H4.5V8.55469ZM11.25 4.05469H8.25V5.47969H11.25C12.5325 5.47969 13.575 6.52219 13.575 7.80469C13.575 9.08719 12.5325 10.1297 11.25 10.1297H8.25V11.5547H11.25C13.32 11.5547 15 9.87469 15 7.80469C15 5.73469 13.32 4.05469 11.25 4.05469Z" fill="black"/>
</svg>
