<svg width="18" height="19" viewBox="0 0 18 19" fill="none" xmlns="http://www.w3.org/2000/svg">
<g clip-path="url(#clip0_1083_13501)">
<path d="M2.925 9.32031C2.925 8.03781 3.9675 6.99531 5.25 6.99531H8.25V5.57031H5.25C3.18 5.57031 1.5 7.25031 1.5 9.32031C1.5 11.3903 3.18 13.0703 5.25 13.0703H8.25V11.6453H5.25C3.9675 11.6453 2.925 10.6028 2.925 9.32031ZM6 10.0703H12V8.57031H6V10.0703ZM12.75 5.57031H9.75V6.99531H12.75C14.0325 6.99531 15.075 8.03781 15.075 9.32031C15.075 10.6028 14.0325 11.6453 12.75 11.6453H9.75V13.0703H12.75C14.82 13.0703 16.5 11.3903 16.5 9.32031C16.5 7.25031 14.82 5.57031 12.75 5.57031Z" fill="black" fill-opacity="0.5"/>
</g>
<defs>
<clipPath id="clip0_1083_13501">
<rect width="18" height="18" fill="white" transform="translate(0 0.320312)"/>
</clipPath>
</defs>
</svg>
