<svg width="113" height="113" viewBox="0 0 113 113" fill="none" xmlns="http://www.w3.org/2000/svg">
<rect x="0.5" y="0.5" width="112" height="112" rx="7.5" fill="#FDFDFD"/>
<rect x="0.5" y="0.5" width="112" height="112" rx="7.5" stroke="#D9D9D9"/>
<rect x="39.25" y="27.25" width="34.5" height="34.5" rx="9.75" stroke="#858585" stroke-width="0.5"/>
<g clip-path="url(#clip0_1781_17633)">
<path d="M65.9925 50.625C65.9925 51.0891 65.8001 51.5342 65.4578 51.8624C65.1155 52.1906 64.6512 52.375 64.1671 52.375H47.7385C47.2544 52.375 46.7901 52.1906 46.4477 51.8624C46.1054 51.5342 45.9131 51.0891 45.9131 50.625V41C45.9131 40.5359 46.1054 40.0908 46.4477 39.7626C46.7901 39.4344 47.2544 39.25 47.7385 39.25H51.3893L53.2147 36.625H58.6909L60.5163 39.25H64.1671C64.6512 39.25 65.1155 39.4344 65.4578 39.7626C65.8001 40.0908 65.9925 40.5359 65.9925 41V50.625Z" stroke="#858585" stroke-linecap="round" stroke-linejoin="round"/>
<path d="M55.9526 48.875C57.9688 48.875 59.6033 47.308 59.6033 45.375C59.6033 43.442 57.9688 41.875 55.9526 41.875C53.9363 41.875 52.3018 43.442 52.3018 45.375C52.3018 47.308 53.9363 48.875 55.9526 48.875Z" stroke="#858585" stroke-linecap="round" stroke-linejoin="round"/>
</g>
<g clip-path="url(#clip1_1781_17633)">
<rect width="7.66667" height="8" transform="translate(60.333 47)" fill="white"/>
<path d="M64.1661 54.3337C65.9304 54.3337 67.3606 52.8413 67.3606 51.0003C67.3606 49.1594 65.9304 47.667 64.1661 47.667C62.4019 47.667 60.9717 49.1594 60.9717 51.0003C60.9717 52.8413 62.4019 54.3337 64.1661 54.3337Z" stroke="#858585" stroke-linecap="round" stroke-linejoin="round"/>
<path d="M64.166 49.667V52.3337" stroke="#858585" stroke-linecap="round" stroke-linejoin="round"/>
<path d="M62.8887 51H65.4442" stroke="#858585" stroke-linecap="round" stroke-linejoin="round"/>
</g>
<path d="M27.981 72.761H28.729V74.543C28.729 75.093 28.6593 75.632 28.52 76.16C28.388 76.688 28.1973 77.183 27.948 77.645C27.6987 78.107 27.4053 78.5177 27.068 78.877C26.7307 79.2363 26.364 79.5223 25.968 79.735L25.407 78.998C25.7737 78.8147 26.111 78.569 26.419 78.261C26.7343 77.9457 27.0093 77.5863 27.244 77.183C27.4787 76.7797 27.6583 76.3543 27.783 75.907C27.915 75.4523 27.981 74.9977 27.981 74.543V72.761ZM28.146 72.761H28.883V74.543C28.883 74.983 28.9453 75.4193 29.07 75.852C29.202 76.2847 29.3853 76.6917 29.62 77.073C29.8547 77.4543 30.1223 77.7953 30.423 78.096C30.731 78.3967 31.061 78.635 31.413 78.811L30.852 79.537C30.4633 79.339 30.104 79.0677 29.774 78.723C29.4513 78.3783 29.1653 77.986 28.916 77.546C28.674 77.0987 28.4833 76.622 28.344 76.116C28.212 75.6027 28.146 75.0783 28.146 74.543V72.761ZM32.282 71.903H33.195V81.858H32.282V71.903ZM32.986 75.929H34.823V76.71H32.986V75.929ZM38.1551 72.992H38.9141V74.015C38.9141 74.6237 38.7968 75.1883 38.5621 75.709C38.3275 76.2297 37.9975 76.688 37.5721 77.084C37.1541 77.4727 36.6665 77.766 36.1091 77.964L35.6361 77.249C36.1348 77.0657 36.5711 76.8127 36.9451 76.49C37.3265 76.1673 37.6235 75.7933 37.8361 75.368C38.0488 74.9353 38.1551 74.4843 38.1551 74.015V72.992ZM38.3311 72.992H39.0791V74.015C39.0791 74.3523 39.1378 74.6787 39.2551 74.994C39.3798 75.302 39.5558 75.5917 39.7831 75.863C40.0105 76.127 40.2745 76.3617 40.5751 76.567C40.8831 76.7723 41.2205 76.9337 41.5871 77.051L41.1251 77.766C40.5751 77.5753 40.0911 77.2967 39.6731 76.93C39.2551 76.5633 38.9251 76.1307 38.6831 75.632C38.4485 75.1333 38.3311 74.5943 38.3311 74.015V72.992ZM35.8781 72.728H41.3231V73.476H35.8781V72.728ZM42.7421 71.914H43.6551V79.196H42.7421V71.914ZM37.2641 80.89H43.9631V81.638H37.2641V80.89ZM37.2641 78.514H38.1771V81.22H37.2641V78.514ZM52.2951 78.228H53.1971V81.869H52.2951V78.228ZM48.2581 77.92H57.2451V78.679H48.2581V77.92ZM52.2951 73.619H53.0981V73.872C53.0981 74.2093 53.0285 74.532 52.8891 74.84C52.7498 75.1407 52.5555 75.4193 52.3061 75.676C52.0568 75.9327 51.7635 76.1637 51.4261 76.369C51.0961 76.567 50.7368 76.7357 50.3481 76.875C49.9668 77.007 49.5671 77.1023 49.1491 77.161L48.8191 76.435C49.1785 76.3837 49.5268 76.303 49.8641 76.193C50.2088 76.083 50.5241 75.9473 50.8101 75.786C51.1035 75.6247 51.3601 75.445 51.5801 75.247C51.8075 75.0417 51.9835 74.8253 52.1081 74.598C52.2328 74.3633 52.2951 74.1213 52.2951 73.872V73.619ZM52.4051 73.619H53.2081V73.872C53.2081 74.114 53.2705 74.3523 53.3951 74.587C53.5198 74.8143 53.6921 75.0307 53.9121 75.236C54.1321 75.434 54.3851 75.6173 54.6711 75.786C54.9645 75.9473 55.2798 76.083 55.6171 76.193C55.9618 76.303 56.3138 76.3837 56.6731 76.435L56.3431 77.161C55.9251 77.1023 55.5218 77.007 55.1331 76.875C54.7518 76.7357 54.3925 76.567 54.0551 76.369C53.7251 76.1637 53.4355 75.9327 53.1861 75.676C52.9441 75.4193 52.7535 75.1407 52.6141 74.84C52.4748 74.532 52.4051 74.2093 52.4051 73.872V73.619ZM49.1271 73.135H56.3761V73.872H49.1271V73.135ZM52.2951 71.903H53.1971V73.388H52.2951V71.903ZM64.9443 71.903H65.8573V81.847H64.9443V71.903ZM65.6153 75.94H67.4413V76.699H65.6153V75.94ZM62.4033 72.97H63.2943C63.2943 73.916 63.1403 74.8217 62.8323 75.687C62.5243 76.545 62.0403 77.3407 61.3803 78.074C60.7203 78.8 59.8513 79.4307 58.7733 79.966L58.2673 79.262C59.1913 78.8 59.9576 78.261 60.5663 77.645C61.1823 77.0217 61.6406 76.3323 61.9413 75.577C62.2493 74.8143 62.4033 73.993 62.4033 73.113V72.97ZM58.7293 72.97H62.8653V73.729H58.7293V72.97ZM74.9094 71.903H75.8114V81.858H74.9094V71.903ZM75.6024 75.995H77.4394V76.765H75.6024V75.995ZM68.1114 73.498H73.9744V74.246H68.1114V73.498ZM71.0924 75.06C71.5617 75.06 71.9761 75.159 72.3354 75.357C72.7021 75.555 72.9881 75.8263 73.1934 76.171C73.4061 76.5083 73.5124 76.9007 73.5124 77.348C73.5124 77.7953 73.4061 78.1913 73.1934 78.536C72.9881 78.8807 72.7021 79.152 72.3354 79.35C71.9761 79.5407 71.5617 79.636 71.0924 79.636C70.6231 79.636 70.2051 79.5407 69.8384 79.35C69.4791 79.152 69.1931 78.8807 68.9804 78.536C68.7677 78.1913 68.6614 77.7953 68.6614 77.348C68.6614 76.9007 68.7677 76.5083 68.9804 76.171C69.1931 75.8263 69.4791 75.555 69.8384 75.357C70.2051 75.159 70.6231 75.06 71.0924 75.06ZM71.0924 75.819C70.7917 75.819 70.5241 75.885 70.2894 76.017C70.0547 76.149 69.8677 76.3287 69.7284 76.556C69.5964 76.7833 69.5304 77.0473 69.5304 77.348C69.5304 77.6487 69.5964 77.9163 69.7284 78.151C69.8677 78.3783 70.0547 78.558 70.2894 78.69C70.5241 78.8147 70.7917 78.877 71.0924 78.877C71.3857 78.877 71.6497 78.8147 71.8844 78.69C72.1191 78.558 72.3024 78.3783 72.4344 78.151C72.5737 77.9163 72.6434 77.6487 72.6434 77.348C72.6434 77.0473 72.5737 76.7833 72.4344 76.556C72.3024 76.3287 72.1191 76.149 71.8844 76.017C71.6497 75.885 71.3857 75.819 71.0924 75.819ZM70.6194 72.024H71.5324V73.828H70.6194V72.024ZM85.3695 71.903H86.2825V81.858H85.3695V71.903ZM82.4545 72.981H83.3565C83.3565 73.6997 83.2685 74.3927 83.0925 75.06C82.9239 75.7273 82.6562 76.3617 82.2895 76.963C81.9229 77.557 81.4462 78.1107 80.8595 78.624C80.2729 79.1373 79.5615 79.5957 78.7255 79.999L78.2415 79.262C79.2022 78.8 79.9942 78.261 80.6175 77.645C81.2409 77.029 81.7029 76.3433 82.0035 75.588C82.3042 74.8253 82.4545 74.004 82.4545 73.124V72.981ZM78.7035 72.981H82.8395V73.718H78.7035V72.981Z" fill="#858585"/>
<defs>
<clipPath id="clip0_1781_17633">
<rect width="21.9048" height="21" fill="white" transform="translate(45 34)"/>
</clipPath>
<clipPath id="clip1_1781_17633">
<rect width="7.66667" height="8" fill="white" transform="translate(60.333 47)"/>
</clipPath>
</defs>
</svg>
